# xmcd
#
# Track frame offsets:
# 150
# 21421
# 41874
# 62090
# 80550
# 96334
# 117373
# 135566
# 154280
# 181704
# 200465
# 222779
# 240668
# 255242
#
# Disc length: 3512 seconds
#
#
# Revision: 0
# Processed by: cddbd v1.5.2PL0 Copyright (c) Steve Scherf et al.
# Submitted via: FreeRIP 2.951 
#
DISCID=c10db60e
DTITLE=Ronaldo Sabino - Estradas de Minas
DYEAR=2007
DGENRE=Other
TTITLE0=O Cabloco e o Mar
TTITLE1=Prosa de Compadre
TTITLE2=Estradão
TTITLE3=Luar de Neon
TTITLE4=Estradas de Minas
TTITLE5=Muntado nas Idéia
TTITLE6=Entrega
TTITLE7=Rio Valente
TTITLE8=Foliões do Brasil
TTITLE9=Anoiteceu
TTITLE10=Desperta
TTITLE11=Onde eu moro - Part. Esp. Liu&Léo
TTITLE12=Zé vai a caça
TTITLE13=Briga de Foice - Instrumental
EXTD=Um disco de música caipira regional brasileira de muita qulaidade!! 
EXTT0=
EXTT1=
EXTT2=
EXTT3=
EXTT4=
EXTT5=
EXTT6=
EXTT7=
EXTT8=
EXTT9=
EXTT10=
EXTT11=
EXTT12=
EXTT13=
PLAYORDER=
